<?xml version="1.0" encoding="UTF-8" standalone="no"?>
<!DOCTYPE svg PUBLIC "-//W3C//DTD SVG 1.1//EN"
 "http://www.w3.org/Graphics/SVG/1.1/DTD/svg11.dtd">
<!-- Generated by graphviz version 2.47.3 (20210619.1520)
 -->
<!-- Title: dependencies Pages: 1 -->
<svg width="2310pt" height="247pt"
 viewBox="0.00 0.00 2310.00 246.80" xmlns="http://www.w3.org/2000/svg" xmlns:xlink="http://www.w3.org/1999/xlink">
<g id="graph0" class="graph" transform="scale(1 1) rotate(0) translate(4 242.8)">
<title>dependencies</title>
<polygon fill="white" stroke="transparent" points="-4,4 -4,-242.8 2306,-242.8 2306,4 -4,4"/>
<text text-anchor="middle" x="1151" y="-8.2" font-family="sans-serif" font-size="14.00">dependencies</text>
<g id="clust1" class="cluster">
<title>cluster_AppModule</title>
<polygon fill="none" stroke="black" stroke-dasharray="1,5" points="8,-32.8 8,-230.8 2294,-230.8 2294,-32.8 8,-32.8"/>
</g>
<g id="clust2" class="cluster">
<title>cluster_AppModule_declarations</title>
<polygon fill="none" stroke="black" points="168,-40.8 168,-92.8 2286,-92.8 2286,-40.8 168,-40.8"/>
</g>
<g id="clust17" class="cluster">
<title>cluster_AppModule_imports</title>
<polygon fill="none" stroke="black" points="16,-40.8 16,-92.8 160,-92.8 160,-40.8 16,-40.8"/>
</g>
<g id="clust19" class="cluster">
<title>cluster_AppModule_bootstrap</title>
<polygon fill="none" stroke="black" points="1090,-170.8 1090,-222.8 1214,-222.8 1214,-170.8 1090,-170.8"/>
</g>
<!-- AppComponent -->
<g id="node1" class="node">
<title>AppComponent</title>
<polygon fill="#ffffb3" stroke="black" points="2277.94,-84.8 2172.06,-84.8 2172.06,-48.8 2277.94,-48.8 2277.94,-84.8"/>
<text text-anchor="middle" x="2225" y="-62.6" font-family="Times,serif" font-size="14.00">AppComponent</text>
</g>
<!-- AppModule -->
<g id="node15" class="node">
<title>AppModule</title>
<polygon fill="#8dd3c7" stroke="black" points="1193.66,-149.8 1190.66,-153.8 1169.66,-153.8 1166.66,-149.8 1110.34,-149.8 1110.34,-113.8 1193.66,-113.8 1193.66,-149.8"/>
<text text-anchor="middle" x="1152" y="-127.6" font-family="Times,serif" font-size="14.00">AppModule</text>
</g>
<!-- AppComponent&#45;&gt;AppModule -->
<g id="edge1" class="edge">
<title>AppComponent&#45;&gt;AppModule</title>
<path fill="none" stroke="black" d="M2225,-85.12C2225,-108.46 2225,-145.8 2225,-145.8 2225,-145.8 1203.73,-145.8 1203.73,-145.8"/>
<polygon fill="black" stroke="black" points="1203.73,-142.3 1193.73,-145.8 1203.73,-149.3 1203.73,-142.3"/>
</g>
<!-- CategoriasComponent -->
<g id="node2" class="node">
<title>CategoriasComponent</title>
<polygon fill="#ffffb3" stroke="black" points="2154.7,-84.8 2013.3,-84.8 2013.3,-48.8 2154.7,-48.8 2154.7,-84.8"/>
<text text-anchor="middle" x="2084" y="-62.6" font-family="Times,serif" font-size="14.00">CategoriasComponent</text>
</g>
<!-- CategoriasComponent&#45;&gt;AppModule -->
<g id="edge2" class="edge">
<title>CategoriasComponent&#45;&gt;AppModule</title>
<path fill="none" stroke="black" d="M2084,-85.09C2084,-107.01 2084,-140.8 2084,-140.8 2084,-140.8 1203.86,-140.8 1203.86,-140.8"/>
<polygon fill="black" stroke="black" points="1203.86,-137.3 1193.86,-140.8 1203.86,-144.3 1203.86,-137.3"/>
</g>
<!-- DateTimePipe -->
<g id="node3" class="node">
<title>DateTimePipe</title>
<polygon fill="#ffffb3" stroke="black" points="1995.36,-84.8 1898.64,-84.8 1898.64,-48.8 1995.36,-48.8 1995.36,-84.8"/>
<text text-anchor="middle" x="1947" y="-62.6" font-family="Times,serif" font-size="14.00">DateTimePipe</text>
</g>
<!-- DateTimePipe&#45;&gt;AppModule -->
<g id="edge3" class="edge">
<title>DateTimePipe&#45;&gt;AppModule</title>
<path fill="none" stroke="black" d="M1947,-84.83C1947,-105.57 1947,-136.8 1947,-136.8 1947,-136.8 1203.9,-136.8 1203.9,-136.8"/>
<polygon fill="black" stroke="black" points="1203.9,-133.3 1193.9,-136.8 1203.9,-140.3 1203.9,-133.3"/>
</g>
<!-- EditProfessorComponent -->
<g id="node4" class="node">
<title>EditProfessorComponent</title>
<polygon fill="#ffffb3" stroke="black" points="1880.54,-84.8 1723.46,-84.8 1723.46,-48.8 1880.54,-48.8 1880.54,-84.8"/>
<text text-anchor="middle" x="1802" y="-62.6" font-family="Times,serif" font-size="14.00">EditProfessorComponent</text>
</g>
<!-- EditProfessorComponent&#45;&gt;AppModule -->
<g id="edge4" class="edge">
<title>EditProfessorComponent&#45;&gt;AppModule</title>
<path fill="none" stroke="black" d="M1802,-84.91C1802,-104.14 1802,-131.8 1802,-131.8 1802,-131.8 1204.15,-131.8 1204.15,-131.8"/>
<polygon fill="black" stroke="black" points="1204.15,-128.3 1194.15,-131.8 1204.15,-135.3 1204.15,-128.3"/>
</g>
<!-- EditTurmaComponent -->
<g id="node5" class="node">
<title>EditTurmaComponent</title>
<polygon fill="#ffffb3" stroke="black" points="1704.98,-84.8 1563.02,-84.8 1563.02,-48.8 1704.98,-48.8 1704.98,-84.8"/>
<text text-anchor="middle" x="1634" y="-62.6" font-family="Times,serif" font-size="14.00">EditTurmaComponent</text>
</g>
<!-- EditTurmaComponent&#45;&gt;AppModule -->
<g id="edge5" class="edge">
<title>EditTurmaComponent&#45;&gt;AppModule</title>
<path fill="none" stroke="black" d="M1634,-85.1C1634,-103.07 1634,-127.8 1634,-127.8 1634,-127.8 1203.93,-127.8 1203.93,-127.8"/>
<polygon fill="black" stroke="black" points="1203.93,-124.3 1193.93,-127.8 1203.93,-131.3 1203.93,-124.3"/>
</g>
<!-- FooterComponent -->
<g id="node6" class="node">
<title>FooterComponent</title>
<polygon fill="#ffffb3" stroke="black" points="1544.88,-84.8 1427.12,-84.8 1427.12,-48.8 1544.88,-48.8 1544.88,-84.8"/>
<text text-anchor="middle" x="1486" y="-62.6" font-family="Times,serif" font-size="14.00">FooterComponent</text>
</g>
<!-- FooterComponent&#45;&gt;AppModule -->
<g id="edge6" class="edge">
<title>FooterComponent&#45;&gt;AppModule</title>
<path fill="none" stroke="black" d="M1486,-84.83C1486,-101.2 1486,-122.8 1486,-122.8 1486,-122.8 1203.96,-122.8 1203.96,-122.8"/>
<polygon fill="black" stroke="black" points="1203.96,-119.3 1193.96,-122.8 1203.96,-126.3 1203.96,-119.3"/>
</g>
<!-- FormProfessorComponent -->
<g id="node7" class="node">
<title>FormProfessorComponent</title>
<polygon fill="#ffffb3" stroke="black" points="1409.04,-84.8 1244.96,-84.8 1244.96,-48.8 1409.04,-48.8 1409.04,-84.8"/>
<text text-anchor="middle" x="1327" y="-62.6" font-family="Times,serif" font-size="14.00">FormProfessorComponent</text>
</g>
<!-- FormProfessorComponent&#45;&gt;AppModule -->
<g id="edge7" class="edge">
<title>FormProfessorComponent&#45;&gt;AppModule</title>
<path fill="none" stroke="black" d="M1327,-84.99C1327,-99.98 1327,-118.8 1327,-118.8 1327,-118.8 1203.92,-118.8 1203.92,-118.8"/>
<polygon fill="black" stroke="black" points="1203.92,-115.3 1193.92,-118.8 1203.92,-122.3 1203.92,-115.3"/>
</g>
<!-- FormTurmaComponent -->
<g id="node8" class="node">
<title>FormTurmaComponent</title>
<polygon fill="#ffffb3" stroke="black" points="1226.48,-84.8 1077.52,-84.8 1077.52,-48.8 1226.48,-48.8 1226.48,-84.8"/>
<text text-anchor="middle" x="1152" y="-62.6" font-family="Times,serif" font-size="14.00">FormTurmaComponent</text>
</g>
<!-- FormTurmaComponent&#45;&gt;AppModule -->
<g id="edge8" class="edge">
<title>FormTurmaComponent&#45;&gt;AppModule</title>
<path fill="none" stroke="black" d="M1152,-84.91C1152,-84.91 1152,-103.79 1152,-103.79"/>
<polygon fill="black" stroke="black" points="1148.5,-103.79 1152,-113.79 1155.5,-103.79 1148.5,-103.79"/>
</g>
<!-- HomeComponent -->
<g id="node9" class="node">
<title>HomeComponent</title>
<polygon fill="#ffffb3" stroke="black" points="1059.55,-84.8 944.45,-84.8 944.45,-48.8 1059.55,-48.8 1059.55,-84.8"/>
<text text-anchor="middle" x="1002" y="-62.6" font-family="Times,serif" font-size="14.00">HomeComponent</text>
</g>
<!-- HomeComponent&#45;&gt;AppModule -->
<g id="edge9" class="edge">
<title>HomeComponent&#45;&gt;AppModule</title>
<path fill="none" stroke="black" d="M1002,-84.99C1002,-99.98 1002,-118.8 1002,-118.8 1002,-118.8 1100.22,-118.8 1100.22,-118.8"/>
<polygon fill="black" stroke="black" points="1100.22,-122.3 1110.22,-118.8 1100.22,-115.3 1100.22,-122.3"/>
</g>
<!-- ListaProfessorComponent -->
<g id="node10" class="node">
<title>ListaProfessorComponent</title>
<polygon fill="#ffffb3" stroke="black" points="926.19,-84.8 763.81,-84.8 763.81,-48.8 926.19,-48.8 926.19,-84.8"/>
<text text-anchor="middle" x="845" y="-62.6" font-family="Times,serif" font-size="14.00">ListaProfessorComponent</text>
</g>
<!-- ListaProfessorComponent&#45;&gt;AppModule -->
<g id="edge10" class="edge">
<title>ListaProfessorComponent&#45;&gt;AppModule</title>
<path fill="none" stroke="black" d="M845,-84.83C845,-101.2 845,-122.8 845,-122.8 845,-122.8 1100.28,-122.8 1100.28,-122.8"/>
<polygon fill="black" stroke="black" points="1100.28,-126.3 1110.28,-122.8 1100.28,-119.3 1100.28,-126.3"/>
</g>
<!-- ListaTurmaComponent -->
<g id="node11" class="node">
<title>ListaTurmaComponent</title>
<polygon fill="#ffffb3" stroke="black" points="746.14,-84.8 599.86,-84.8 599.86,-48.8 746.14,-48.8 746.14,-84.8"/>
<text text-anchor="middle" x="673" y="-62.6" font-family="Times,serif" font-size="14.00">ListaTurmaComponent</text>
</g>
<!-- ListaTurmaComponent&#45;&gt;AppModule -->
<g id="edge11" class="edge">
<title>ListaTurmaComponent&#45;&gt;AppModule</title>
<path fill="none" stroke="black" d="M673,-85.1C673,-103.07 673,-127.8 673,-127.8 673,-127.8 1100.33,-127.8 1100.33,-127.8"/>
<polygon fill="black" stroke="black" points="1100.33,-131.3 1110.33,-127.8 1100.33,-124.3 1100.33,-131.3"/>
</g>
<!-- LoginComponent -->
<g id="node12" class="node">
<title>LoginComponent</title>
<polygon fill="#ffffb3" stroke="black" points="581.28,-84.8 466.72,-84.8 466.72,-48.8 581.28,-48.8 581.28,-84.8"/>
<text text-anchor="middle" x="524" y="-62.6" font-family="Times,serif" font-size="14.00">LoginComponent</text>
</g>
<!-- LoginComponent&#45;&gt;AppModule -->
<g id="edge12" class="edge">
<title>LoginComponent&#45;&gt;AppModule</title>
<path fill="none" stroke="black" d="M524,-84.91C524,-104.14 524,-131.8 524,-131.8 524,-131.8 1100.31,-131.8 1100.31,-131.8"/>
<polygon fill="black" stroke="black" points="1100.31,-135.3 1110.31,-131.8 1100.31,-128.3 1100.31,-135.3"/>
</g>
<!-- NavComponent -->
<g id="node13" class="node">
<title>NavComponent</title>
<polygon fill="#ffffb3" stroke="black" points="448.15,-84.8 343.85,-84.8 343.85,-48.8 448.15,-48.8 448.15,-84.8"/>
<text text-anchor="middle" x="396" y="-62.6" font-family="Times,serif" font-size="14.00">NavComponent</text>
</g>
<!-- NavComponent&#45;&gt;AppModule -->
<g id="edge13" class="edge">
<title>NavComponent&#45;&gt;AppModule</title>
<path fill="none" stroke="black" d="M396,-84.83C396,-105.57 396,-136.8 396,-136.8 396,-136.8 1100.28,-136.8 1100.28,-136.8"/>
<polygon fill="black" stroke="black" points="1100.28,-140.3 1110.28,-136.8 1100.28,-133.3 1100.28,-140.3"/>
</g>
<!-- TecnologiasComponent -->
<g id="node14" class="node">
<title>TecnologiasComponent</title>
<polygon fill="#ffffb3" stroke="black" points="325.75,-84.8 176.25,-84.8 176.25,-48.8 325.75,-48.8 325.75,-84.8"/>
<text text-anchor="middle" x="251" y="-62.6" font-family="Times,serif" font-size="14.00">TecnologiasComponent</text>
</g>
<!-- TecnologiasComponent&#45;&gt;AppModule -->
<g id="edge14" class="edge">
<title>TecnologiasComponent&#45;&gt;AppModule</title>
<path fill="none" stroke="black" d="M251,-85.09C251,-107.01 251,-140.8 251,-140.8 251,-140.8 1100.05,-140.8 1100.05,-140.8"/>
<polygon fill="black" stroke="black" points="1100.05,-144.3 1110.05,-140.8 1100.05,-137.3 1100.05,-144.3"/>
</g>
<!-- AppComponent  -->
<g id="node17" class="node">
<title>AppComponent </title>
<polygon fill="#80b1d3" stroke="black" points="1206.44,-214.8 1097.56,-214.8 1097.56,-178.8 1206.44,-178.8 1206.44,-214.8"/>
<text text-anchor="middle" x="1152" y="-192.6" font-family="Times,serif" font-size="14.00">AppComponent </text>
</g>
<!-- AppModule&#45;&gt;AppComponent  -->
<g id="edge16" class="edge">
<title>AppModule&#45;&gt;AppComponent </title>
<path fill="none" stroke="black" stroke-dasharray="1,5" d="M1152,-149.91C1152,-149.91 1152,-168.79 1152,-168.79"/>
<polygon fill="black" stroke="black" points="1148.5,-168.79 1152,-178.79 1155.5,-168.79 1148.5,-168.79"/>
</g>
<!-- AppRoutingModule -->
<g id="node16" class="node">
<title>AppRoutingModule</title>
<polygon fill="#8dd3c7" stroke="black" points="152.27,-84.8 149.27,-88.8 128.27,-88.8 125.27,-84.8 23.73,-84.8 23.73,-48.8 152.27,-48.8 152.27,-84.8"/>
<text text-anchor="middle" x="88" y="-62.6" font-family="Times,serif" font-size="14.00">AppRoutingModule</text>
</g>
<!-- AppRoutingModule&#45;&gt;AppModule -->
<g id="edge15" class="edge">
<title>AppRoutingModule&#45;&gt;AppModule</title>
<path fill="none" stroke="black" d="M88,-85.12C88,-108.46 88,-145.8 88,-145.8 88,-145.8 1100.29,-145.8 1100.29,-145.8"/>
<polygon fill="black" stroke="black" points="1100.29,-149.3 1110.29,-145.8 1100.29,-142.3 1100.29,-149.3"/>
</g>
</g>
</svg>
