<?xml version="1.0" encoding="UTF-8" standalone="no"?>
<!DOCTYPE svg PUBLIC "-//W3C//DTD SVG 1.1//EN"
 "http://www.w3.org/Graphics/SVG/1.1/DTD/svg11.dtd">
<!-- Generated by graphviz version 2.47.3 (20210619.1520)
 -->
<!-- Title: dependencies Pages: 1 -->
<svg width="2310pt" height="247pt"
 viewBox="0.00 0.00 2310.00 246.80" xmlns="http://www.w3.org/2000/svg" xmlns:xlink="http://www.w3.org/1999/xlink">
<g id="graph0" class="graph" transform="scale(1 1) rotate(0) translate(4 242.8)">
<title>dependencies</title>
<polygon fill="white" stroke="transparent" points="-4,4 -4,-242.8 2306,-242.8 2306,4 -4,4"/>
<text text-anchor="middle" x="1151" y="-8.2" font-family="sans-serif" font-size="14.00">dependencies</text>
<g id="clust1" class="cluster">
<title>cluster_AppModule</title>
<polygon fill="none" stroke="black" stroke-dasharray="1,5" points="8,-32.8 8,-230.8 2294,-230.8 2294,-32.8 8,-32.8"/>
</g>
<g id="clust17" class="cluster">
<title>cluster_AppModule_imports</title>
<polygon fill="none" stroke="black" points="2142,-40.8 2142,-92.8 2286,-92.8 2286,-40.8 2142,-40.8"/>
</g>
<g id="clust19" class="cluster">
<title>cluster_AppModule_bootstrap</title>
<polygon fill="none" stroke="black" points="1113,-170.8 1113,-222.8 1237,-222.8 1237,-170.8 1113,-170.8"/>
</g>
<g id="clust2" class="cluster">
<title>cluster_AppModule_declarations</title>
<polygon fill="none" stroke="black" points="16,-40.8 16,-92.8 2134,-92.8 2134,-40.8 16,-40.8"/>
</g>
<!-- AppComponent -->
<g id="node1" class="node">
<title>AppComponent</title>
<polygon fill="#ffffb3" stroke="black" points="2125.94,-84.8 2020.06,-84.8 2020.06,-48.8 2125.94,-48.8 2125.94,-84.8"/>
<text text-anchor="middle" x="2073" y="-62.6" font-family="Times,serif" font-size="14.00">AppComponent</text>
</g>
<!-- AppModule -->
<g id="node15" class="node">
<title>AppModule</title>
<polygon fill="#8dd3c7" stroke="black" points="1216.66,-149.8 1213.66,-153.8 1192.66,-153.8 1189.66,-149.8 1133.34,-149.8 1133.34,-113.8 1216.66,-113.8 1216.66,-149.8"/>
<text text-anchor="middle" x="1175" y="-127.6" font-family="Times,serif" font-size="14.00">AppModule</text>
</g>
<!-- AppComponent&#45;&gt;AppModule -->
<g id="edge1" class="edge">
<title>AppComponent&#45;&gt;AppModule</title>
<path fill="none" stroke="black" d="M2073,-85.09C2073,-107.01 2073,-140.8 2073,-140.8 2073,-140.8 1226.81,-140.8 1226.81,-140.8"/>
<polygon fill="black" stroke="black" points="1226.81,-137.3 1216.81,-140.8 1226.81,-144.3 1226.81,-137.3"/>
</g>
<!-- CategoriasComponent -->
<g id="node2" class="node">
<title>CategoriasComponent</title>
<polygon fill="#ffffb3" stroke="black" points="2002.7,-84.8 1861.3,-84.8 1861.3,-48.8 2002.7,-48.8 2002.7,-84.8"/>
<text text-anchor="middle" x="1932" y="-62.6" font-family="Times,serif" font-size="14.00">CategoriasComponent</text>
</g>
<!-- CategoriasComponent&#45;&gt;AppModule -->
<g id="edge2" class="edge">
<title>CategoriasComponent&#45;&gt;AppModule</title>
<path fill="none" stroke="black" d="M1932,-84.83C1932,-105.57 1932,-136.8 1932,-136.8 1932,-136.8 1226.78,-136.8 1226.78,-136.8"/>
<polygon fill="black" stroke="black" points="1226.78,-133.3 1216.78,-136.8 1226.78,-140.3 1226.78,-133.3"/>
</g>
<!-- DateTimePipe -->
<g id="node3" class="node">
<title>DateTimePipe</title>
<polygon fill="#ffffb3" stroke="black" points="1843.36,-84.8 1746.64,-84.8 1746.64,-48.8 1843.36,-48.8 1843.36,-84.8"/>
<text text-anchor="middle" x="1795" y="-62.6" font-family="Times,serif" font-size="14.00">DateTimePipe</text>
</g>
<!-- DateTimePipe&#45;&gt;AppModule -->
<g id="edge3" class="edge">
<title>DateTimePipe&#45;&gt;AppModule</title>
<path fill="none" stroke="black" d="M1795,-84.91C1795,-104.14 1795,-131.8 1795,-131.8 1795,-131.8 1227.13,-131.8 1227.13,-131.8"/>
<polygon fill="black" stroke="black" points="1227.13,-128.3 1217.13,-131.8 1227.13,-135.3 1227.13,-128.3"/>
</g>
<!-- EditProfessorComponent -->
<g id="node4" class="node">
<title>EditProfessorComponent</title>
<polygon fill="#ffffb3" stroke="black" points="1728.54,-84.8 1571.46,-84.8 1571.46,-48.8 1728.54,-48.8 1728.54,-84.8"/>
<text text-anchor="middle" x="1650" y="-62.6" font-family="Times,serif" font-size="14.00">EditProfessorComponent</text>
</g>
<!-- EditProfessorComponent&#45;&gt;AppModule -->
<g id="edge4" class="edge">
<title>EditProfessorComponent&#45;&gt;AppModule</title>
<path fill="none" stroke="black" d="M1650,-85.1C1650,-103.07 1650,-127.8 1650,-127.8 1650,-127.8 1226.74,-127.8 1226.74,-127.8"/>
<polygon fill="black" stroke="black" points="1226.74,-124.3 1216.74,-127.8 1226.74,-131.3 1226.74,-124.3"/>
</g>
<!-- EditTurmaComponent -->
<g id="node5" class="node">
<title>EditTurmaComponent</title>
<polygon fill="#ffffb3" stroke="black" points="1552.98,-84.8 1411.02,-84.8 1411.02,-48.8 1552.98,-48.8 1552.98,-84.8"/>
<text text-anchor="middle" x="1482" y="-62.6" font-family="Times,serif" font-size="14.00">EditTurmaComponent</text>
</g>
<!-- EditTurmaComponent&#45;&gt;AppModule -->
<g id="edge5" class="edge">
<title>EditTurmaComponent&#45;&gt;AppModule</title>
<path fill="none" stroke="black" d="M1482,-84.83C1482,-101.2 1482,-122.8 1482,-122.8 1482,-122.8 1226.72,-122.8 1226.72,-122.8"/>
<polygon fill="black" stroke="black" points="1226.72,-119.3 1216.72,-122.8 1226.72,-126.3 1226.72,-119.3"/>
</g>
<!-- FooterComponent -->
<g id="node6" class="node">
<title>FooterComponent</title>
<polygon fill="#ffffb3" stroke="black" points="1392.88,-84.8 1275.12,-84.8 1275.12,-48.8 1392.88,-48.8 1392.88,-84.8"/>
<text text-anchor="middle" x="1334" y="-62.6" font-family="Times,serif" font-size="14.00">FooterComponent</text>
</g>
<!-- FooterComponent&#45;&gt;AppModule -->
<g id="edge6" class="edge">
<title>FooterComponent&#45;&gt;AppModule</title>
<path fill="none" stroke="black" d="M1334,-84.99C1334,-99.98 1334,-118.8 1334,-118.8 1334,-118.8 1226.78,-118.8 1226.78,-118.8"/>
<polygon fill="black" stroke="black" points="1226.78,-115.3 1216.78,-118.8 1226.78,-122.3 1226.78,-115.3"/>
</g>
<!-- FormProfessorComponent -->
<g id="node7" class="node">
<title>FormProfessorComponent</title>
<polygon fill="#ffffb3" stroke="black" points="1257.04,-84.8 1092.96,-84.8 1092.96,-48.8 1257.04,-48.8 1257.04,-84.8"/>
<text text-anchor="middle" x="1175" y="-62.6" font-family="Times,serif" font-size="14.00">FormProfessorComponent</text>
</g>
<!-- FormProfessorComponent&#45;&gt;AppModule -->
<g id="edge7" class="edge">
<title>FormProfessorComponent&#45;&gt;AppModule</title>
<path fill="none" stroke="black" d="M1175,-84.91C1175,-84.91 1175,-103.79 1175,-103.79"/>
<polygon fill="black" stroke="black" points="1171.5,-103.79 1175,-113.79 1178.5,-103.79 1171.5,-103.79"/>
</g>
<!-- FormTurmaComponent -->
<g id="node8" class="node">
<title>FormTurmaComponent</title>
<polygon fill="#ffffb3" stroke="black" points="1074.48,-84.8 925.52,-84.8 925.52,-48.8 1074.48,-48.8 1074.48,-84.8"/>
<text text-anchor="middle" x="1000" y="-62.6" font-family="Times,serif" font-size="14.00">FormTurmaComponent</text>
</g>
<!-- FormTurmaComponent&#45;&gt;AppModule -->
<g id="edge8" class="edge">
<title>FormTurmaComponent&#45;&gt;AppModule</title>
<path fill="none" stroke="black" d="M1000,-84.99C1000,-99.98 1000,-118.8 1000,-118.8 1000,-118.8 1123.08,-118.8 1123.08,-118.8"/>
<polygon fill="black" stroke="black" points="1123.08,-122.3 1133.08,-118.8 1123.08,-115.3 1123.08,-122.3"/>
</g>
<!-- HomeComponent -->
<g id="node9" class="node">
<title>HomeComponent</title>
<polygon fill="#ffffb3" stroke="black" points="907.55,-84.8 792.45,-84.8 792.45,-48.8 907.55,-48.8 907.55,-84.8"/>
<text text-anchor="middle" x="850" y="-62.6" font-family="Times,serif" font-size="14.00">HomeComponent</text>
</g>
<!-- HomeComponent&#45;&gt;AppModule -->
<g id="edge9" class="edge">
<title>HomeComponent&#45;&gt;AppModule</title>
<path fill="none" stroke="black" d="M850,-84.83C850,-101.2 850,-122.8 850,-122.8 850,-122.8 1123.18,-122.8 1123.18,-122.8"/>
<polygon fill="black" stroke="black" points="1123.18,-126.3 1133.18,-122.8 1123.18,-119.3 1123.18,-126.3"/>
</g>
<!-- ListaProfessorComponent -->
<g id="node10" class="node">
<title>ListaProfessorComponent</title>
<polygon fill="#ffffb3" stroke="black" points="774.19,-84.8 611.81,-84.8 611.81,-48.8 774.19,-48.8 774.19,-84.8"/>
<text text-anchor="middle" x="693" y="-62.6" font-family="Times,serif" font-size="14.00">ListaProfessorComponent</text>
</g>
<!-- ListaProfessorComponent&#45;&gt;AppModule -->
<g id="edge10" class="edge">
<title>ListaProfessorComponent&#45;&gt;AppModule</title>
<path fill="none" stroke="black" d="M693,-85.1C693,-103.07 693,-127.8 693,-127.8 693,-127.8 1123.07,-127.8 1123.07,-127.8"/>
<polygon fill="black" stroke="black" points="1123.07,-131.3 1133.07,-127.8 1123.07,-124.3 1123.07,-131.3"/>
</g>
<!-- ListaTurmaComponent -->
<g id="node11" class="node">
<title>ListaTurmaComponent</title>
<polygon fill="#ffffb3" stroke="black" points="594.14,-84.8 447.86,-84.8 447.86,-48.8 594.14,-48.8 594.14,-84.8"/>
<text text-anchor="middle" x="521" y="-62.6" font-family="Times,serif" font-size="14.00">ListaTurmaComponent</text>
</g>
<!-- ListaTurmaComponent&#45;&gt;AppModule -->
<g id="edge11" class="edge">
<title>ListaTurmaComponent&#45;&gt;AppModule</title>
<path fill="none" stroke="black" d="M521,-84.91C521,-104.14 521,-131.8 521,-131.8 521,-131.8 1123.09,-131.8 1123.09,-131.8"/>
<polygon fill="black" stroke="black" points="1123.09,-135.3 1133.09,-131.8 1123.09,-128.3 1123.09,-135.3"/>
</g>
<!-- LoginComponent -->
<g id="node12" class="node">
<title>LoginComponent</title>
<polygon fill="#ffffb3" stroke="black" points="429.28,-84.8 314.72,-84.8 314.72,-48.8 429.28,-48.8 429.28,-84.8"/>
<text text-anchor="middle" x="372" y="-62.6" font-family="Times,serif" font-size="14.00">LoginComponent</text>
</g>
<!-- LoginComponent&#45;&gt;AppModule -->
<g id="edge12" class="edge">
<title>LoginComponent&#45;&gt;AppModule</title>
<path fill="none" stroke="black" d="M372,-84.83C372,-105.57 372,-136.8 372,-136.8 372,-136.8 1123.24,-136.8 1123.24,-136.8"/>
<polygon fill="black" stroke="black" points="1123.24,-140.3 1133.24,-136.8 1123.24,-133.3 1123.24,-140.3"/>
</g>
<!-- NavComponent -->
<g id="node13" class="node">
<title>NavComponent</title>
<polygon fill="#ffffb3" stroke="black" points="296.15,-84.8 191.85,-84.8 191.85,-48.8 296.15,-48.8 296.15,-84.8"/>
<text text-anchor="middle" x="244" y="-62.6" font-family="Times,serif" font-size="14.00">NavComponent</text>
</g>
<!-- NavComponent&#45;&gt;AppModule -->
<g id="edge13" class="edge">
<title>NavComponent&#45;&gt;AppModule</title>
<path fill="none" stroke="black" d="M244,-85.09C244,-107.01 244,-140.8 244,-140.8 244,-140.8 1123.19,-140.8 1123.19,-140.8"/>
<polygon fill="black" stroke="black" points="1123.19,-144.3 1133.19,-140.8 1123.19,-137.3 1123.19,-144.3"/>
</g>
<!-- TecnologiasComponent -->
<g id="node14" class="node">
<title>TecnologiasComponent</title>
<polygon fill="#ffffb3" stroke="black" points="173.75,-84.8 24.25,-84.8 24.25,-48.8 173.75,-48.8 173.75,-84.8"/>
<text text-anchor="middle" x="99" y="-62.6" font-family="Times,serif" font-size="14.00">TecnologiasComponent</text>
</g>
<!-- TecnologiasComponent&#45;&gt;AppModule -->
<g id="edge14" class="edge">
<title>TecnologiasComponent&#45;&gt;AppModule</title>
<path fill="none" stroke="black" d="M99,-85.12C99,-108.46 99,-145.8 99,-145.8 99,-145.8 1123.15,-145.8 1123.15,-145.8"/>
<polygon fill="black" stroke="black" points="1123.15,-149.3 1133.15,-145.8 1123.15,-142.3 1123.15,-149.3"/>
</g>
<!-- AppComponent  -->
<g id="node17" class="node">
<title>AppComponent </title>
<polygon fill="#80b1d3" stroke="black" points="1229.44,-214.8 1120.56,-214.8 1120.56,-178.8 1229.44,-178.8 1229.44,-214.8"/>
<text text-anchor="middle" x="1175" y="-192.6" font-family="Times,serif" font-size="14.00">AppComponent </text>
</g>
<!-- AppModule&#45;&gt;AppComponent  -->
<g id="edge16" class="edge">
<title>AppModule&#45;&gt;AppComponent </title>
<path fill="none" stroke="black" stroke-dasharray="1,5" d="M1175,-149.91C1175,-149.91 1175,-168.79 1175,-168.79"/>
<polygon fill="black" stroke="black" points="1171.5,-168.79 1175,-178.79 1178.5,-168.79 1171.5,-168.79"/>
</g>
<!-- AppRoutingModule -->
<g id="node16" class="node">
<title>AppRoutingModule</title>
<polygon fill="#8dd3c7" stroke="black" points="2278.27,-84.8 2275.27,-88.8 2254.27,-88.8 2251.27,-84.8 2149.73,-84.8 2149.73,-48.8 2278.27,-48.8 2278.27,-84.8"/>
<text text-anchor="middle" x="2214" y="-62.6" font-family="Times,serif" font-size="14.00">AppRoutingModule</text>
</g>
<!-- AppRoutingModule&#45;&gt;AppModule -->
<g id="edge15" class="edge">
<title>AppRoutingModule&#45;&gt;AppModule</title>
<path fill="none" stroke="black" d="M2214,-85.12C2214,-108.46 2214,-145.8 2214,-145.8 2214,-145.8 1226.69,-145.8 1226.69,-145.8"/>
<polygon fill="black" stroke="black" points="1226.69,-142.3 1216.69,-145.8 1226.69,-149.3 1226.69,-142.3"/>
</g>
</g>
</svg>
